<?xml version="1.0" encoding="UTF-8"?>
<svg id="Layer_2" data-name="Layer 2" xmlns="http://www.w3.org/2000/svg" viewBox="0 0 206.81 206.81">
  <defs>
    <style>
      .cls-1 {
        fill: #fff;
      }

      .cls-2 {
        fill: #ce024b;
      }
    </style>
  </defs>
  <g id="Layer_1-2" data-name="Layer 1">
    <g>
      <rect class="cls-2" width="206.81" height="206.81"/>
      <g>
        <path class="cls-1" d="M59.78,79.61c3.68,6.27,8.29,12.39,14.5,16.35,2.1,1.3,4.47,2.23,7.05,2.4-2.54.48-5.28.16-7.83-.65-7.73-2.56-14.25-7.83-19.91-13.57-1.55-1.56-1.5-4.11.13-5.6,1.83-1.73,4.93-1.17,6.06,1.06h0Z"/>
        <path class="cls-1" d="M127.89,91.24c-3.8,6.19-8.53,12.23-14.81,16.07-2.12,1.26-4.51,2.14-7.09,2.26,2.53.53,5.28.26,7.84-.5,7.78-2.41,14.39-7.56,20.16-13.18,1.58-1.53,1.58-4.08-.02-5.6-1.79-1.76-4.91-1.26-6.08.95h0Z"/>
        <path class="cls-1" d="M160.4,160.09c-3.21-.37-5.62-2.88-8.75-3.48-2.22-.49-4.59-.03-6.48,1.22-1.22.73-2.16,1.82-3.29,2.66h0s-27.21-17.11-44.82-24.5c1.75-9.74,4.46-17.28,5.38-22.21.93-4.92,1.41-7.65,1.46-8.2l2.54-1.5c1.7-1,3.43-2.33,5.21-4.01,1.77-1.67,3.47-3.61,5.09-5.8,1.62-2.19,3.16-4.59,4.61-7.19,1.45-2.6,2.7-5.34,3.75-8.24,1.05-2.9,1.89-5.89,2.51-8.99.62-3.09.93-6.22.93-9.36,0-3.79-.3-7.06-.89-9.81-.6-2.74-1.62-4.89-3.07-6.44l-1.57-1.42c-.55-.6-1.02-1.02-1.43-1.28-.85-.65-1.87-1.3-3.07-1.94-1.2-.65-2.36-1.23-3.48-1.73-1.12-.5-2.13-.89-3.04-1.2-.89-.3-1.47-.45-1.72-.45-3.45,0-6.43.74-8.96,2.21-2.52,1.48-4.68,3.53-6.48,6.18-1.8,2.65-3.27,5.79-4.42,9.44-1.14,3.65-2.08,7.63-2.81,11.95-.72,4.31-1.3,8.9-1.73,13.74-.42,4.85-.79,9.81-1.09,14.91-.1,1.45-.19,2.87-.26,4.27-.07,1.4-.16,2.79-.26,4.19-3.14.75-6.07.97-8.76.68-2.69-.3-5.32-.95-7.86-1.95-2.84-1.1-5.49-2.52-7.94-4.27-2.45-1.75-4.95-3.67-7.49-5.77-.8-.7-1.6-1.4-2.4-2.1-.8-.7-1.62-1.39-2.47-2.1-.95-.8-1.89-1.22-2.81-1.27-.93-.05-1.67.19-2.25.71-.57.52-.88,1.29-.93,2.29s.35,2.17,1.2,3.52c1.15,1.25,2.92,2.9,5.32,4.94,2.7,2.15,5.63,4.11,8.8,5.88s6.48,3.23,9.93,4.39c2.84,1,5.68,1.69,8.5,2.1,2.82.4,5.57.47,8.27.22,0,.13-.02.49-.03,1.09-.03.92-.08,2.19-.15,3.78-.08,1.6-.18,3.38-.3,5.32-.13,1.95-.29,3.82-.49,5.62-.2,1.8-.42,3.38-.67,4.72-.25,1.35-.55,2.22-.9,2.62-2.35,0-4.68.01-7,.04-2.32.03-4.55.2-6.67.52-2.12.33-4.12.85-6,1.57-1.87.72-3.55,1.78-5.06,3.18-2.24,2.1-3.68,4.53-4.31,7.3-.62,2.77-.46,5.41.49,7.91.95,2.49,2.67,4.6,5.17,6.33,2.5,1.72,5.75,2.58,9.74,2.58,2.84,0,5.61-.43,8.28-1.31,2.67-.88,5.17-2.11,7.49-3.71,2.33-1.6,4.41-3.51,6.26-5.73,1.85-2.22,3.37-4.69,4.57-7.38,0,0,11.67.32,47.93,21.4h0c.07.32.46.51.65.76,1.36,1.39,2.99,2.54,4.87,3.09,12.35,3.42,18.23-11.27,18.23-11.27-1.48.99-3.28,1.54-5.07,1.28ZM106,88.88c.9-6.74,2.05-12.84,3.45-18.28,1.4-5.44,3.17-10.43,5.32-14.98,1.6-3.4,3.57-6.3,5.92-8.69.45,1.25.86,2.67,1.23,4.27.38,1.6.56,3.37.56,5.32,0,3.75-.31,7.45-.94,11.12-.62,3.68-1.62,7.2-2.99,10.6-1.37,3.4-3.17,6.61-5.4,9.63-2.22,3.02-4.91,5.73-8.05,8.13.25-2.4.55-4.77.9-7.11ZM72.58,146.26c-2.29,1.6-5.24,2.4-8.83,2.4-2.4,0-4.11-.31-5.13-.94-1.02-.62-1.53-1.38-1.53-2.28s.42-1.85,1.27-2.84,1.95-1.87,3.3-2.62c1.34-.8,2.72-1.32,4.12-1.57,1.4-.26,2.79-.34,4.19-.27,1.4.08,2.8.28,4.2.6,1.39.33,2.77.69,4.12,1.09-1.5,2.7-3.39,4.85-5.7,6.44Z"/>
      </g>
    </g>
  </g>
</svg>